<svg width="27" height="27" viewBox="0 0 27 27" fill="none" xmlns="http://www.w3.org/2000/svg">
<g clip-path="url(#clip0_9_68)">
<path d="M20.4036 10.2414H26.069C26.5825 10.2429 26.9985 10.6589 27 11.1724V13.0345C26.9985 13.548 26.5825 13.964 26.069 13.9655H0.931035C0.417475 13.964 0.00153379 13.548 0 13.0345V11.1724C0.00153379 10.6589 0.417475 10.2429 0.931035 10.2414H20.4036Z" fill="#216E5B"/>
<path d="M17.1077 13.9655H25.6034L23.6203 25.0821C23.42 26.1924 22.4535 27.0001 21.3253 27H5.67459C4.54633 27.0001 3.57983 26.1924 3.37959 25.0821L1.39648 13.9655H17.1077Z" fill="#5CDDBC"/>
<path d="M2.79315 12.569C3.05025 12.569 3.25867 12.3605 3.25867 12.1034C3.25867 11.8463 3.05025 11.6379 2.79315 11.6379C2.53606 11.6379 2.32764 11.8463 2.32764 12.1034C2.32764 12.3605 2.53606 12.569 2.79315 12.569Z" fill="#5CDDBC"/>
<path d="M5.58612 12.569C5.84322 12.569 6.05164 12.3605 6.05164 12.1034C6.05164 11.8463 5.84322 11.6379 5.58612 11.6379C5.32902 11.6379 5.12061 11.8463 5.12061 12.1034C5.12061 12.3605 5.32902 12.569 5.58612 12.569Z" fill="#5CDDBC"/>
<path d="M21.4138 12.569C21.6709 12.569 21.8793 12.3605 21.8793 12.1034C21.8793 11.8463 21.6709 11.6379 21.4138 11.6379C21.1567 11.6379 20.9482 11.8463 20.9482 12.1034C20.9482 12.3605 21.1567 12.569 21.4138 12.569Z" fill="#5CDDBC"/>
<path d="M24.2067 12.569C24.4638 12.569 24.6722 12.3605 24.6722 12.1034C24.6722 11.8463 24.4638 11.6379 24.2067 11.6379C23.9496 11.6379 23.7412 11.8463 23.7412 12.1034C23.7412 12.3605 23.9496 12.569 24.2067 12.569Z" fill="#5CDDBC"/>
<path d="M14.4309 17.2241C14.4309 16.7099 14.0141 16.2931 13.4999 16.2931C12.9857 16.2931 12.5688 16.7099 12.5688 17.2241V23.7414C12.5688 24.2556 12.9857 24.6724 13.4999 24.6724C14.0141 24.6724 14.4309 24.2556 14.4309 23.7414V17.2241Z" fill="#373845"/>
<path d="M20.0173 17.2241C20.0173 16.7099 19.6005 16.2931 19.0863 16.2931C18.5721 16.2931 18.1553 16.7099 18.1553 17.2241V23.7414C18.1553 24.2556 18.5721 24.6724 19.0863 24.6724C19.6005 24.6724 20.0173 24.2556 20.0173 23.7414V17.2241Z" fill="#373845"/>
<path d="M8.84498 17.2241C8.84498 16.7099 8.42814 16.2931 7.91394 16.2931C7.39975 16.2931 6.98291 16.7099 6.98291 17.2241V23.7414C6.98291 24.2556 7.39975 24.6724 7.91394 24.6724C8.42814 24.6724 8.84498 24.2556 8.84498 23.7414V17.2241Z" fill="#373845"/>
<path d="M13.5 14.8966C17.6136 14.8966 20.9483 11.5618 20.9483 7.44828C20.9483 3.33471 17.6136 0 13.5 0C9.38646 0 6.05176 3.33471 6.05176 7.44828C6.05176 11.5618 9.38646 14.8966 13.5 14.8966Z" fill="#216E5B"/>
<path d="M17.224 6.51724H14.4309V3.72414C14.4309 3.20994 14.0141 2.79311 13.4999 2.79311C12.9857 2.79311 12.5689 3.20994 12.5689 3.72414V6.51724H9.77576C9.26156 6.51724 8.84473 6.93408 8.84473 7.44828C8.84473 7.96247 9.26156 8.37931 9.77576 8.37931H12.5689V11.1724C12.5689 11.6866 12.9857 12.1035 13.4999 12.1035C14.0141 12.1035 14.4309 11.6866 14.4309 11.1724V8.37931H17.224C17.7382 8.37931 18.1551 7.96247 18.1551 7.44828C18.1551 6.93408 17.7382 6.51724 17.224 6.51724Z" fill="#ECF0F1"/>
</g>
<defs>
<clipPath id="clip0_9_68">
<rect width="27" height="27" fill="white"/>
</clipPath>
</defs>
</svg>
