<svg width="121" height="39" viewBox="0 0 121 39" fill="none" xmlns="http://www.w3.org/2000/svg">
<path d="M107.046 38.7353H12.8743C5.78605 38.7353 -0.000244141 30.0465 -0.000244141 19.4027C-0.000244141 8.75889 5.78605 0.0700684 12.8743 0.0700684H107.191C114.279 0.0700684 120.066 8.75889 120.066 19.4027C120.066 30.0465 114.279 38.7353 107.046 38.7353Z" fill="#5CDDBC"/>
<path d="M38.2057 15.2661C38.1204 14.5464 37.7748 13.9877 37.1687 13.5899C36.5627 13.1922 35.8193 12.9934 34.9386 12.9934C34.2947 12.9934 33.7312 13.0975 33.2483 13.3059C32.77 13.5142 32.396 13.8006 32.1261 14.1652C31.861 14.5298 31.7284 14.9441 31.7284 15.4081C31.7284 15.7964 31.8207 16.1302 32.0054 16.4095C32.1948 16.6842 32.4362 16.9138 32.7298 17.0985C33.0234 17.2784 33.3311 17.4275 33.6531 17.5459C33.9751 17.6595 34.271 17.7519 34.5409 17.8229L36.0182 18.2206C36.3969 18.3201 36.8183 18.4574 37.2824 18.6326C37.7511 18.8077 38.1986 19.0469 38.6247 19.3499C39.0556 19.6482 39.4107 20.0317 39.69 20.5005C39.9694 20.9692 40.1091 21.5445 40.1091 22.2263C40.1091 23.0123 39.9031 23.7225 39.4912 24.357C39.084 24.9915 38.4874 25.4957 37.7014 25.8698C36.9201 26.2438 35.9708 26.4309 34.8534 26.4309C33.8117 26.4309 32.9097 26.2628 32.1474 25.9266C31.3898 25.5904 30.7932 25.1217 30.3576 24.5203C29.9268 23.919 29.6829 23.2206 29.6261 22.4252H31.4443C31.4916 22.9744 31.6763 23.429 31.9983 23.7888C32.325 24.1439 32.7369 24.4091 33.2341 24.5843C33.736 24.7547 34.2757 24.8399 34.8534 24.8399C35.5257 24.8399 36.1294 24.731 36.6645 24.5132C37.1995 24.2907 37.6233 23.9829 37.9358 23.5899C38.2483 23.1922 38.4045 22.7282 38.4045 22.1979C38.4045 21.7149 38.2696 21.322 37.9997 21.0189C37.7298 20.7159 37.3747 20.4697 36.9343 20.2803C36.494 20.0909 36.0182 19.9252 35.5068 19.7831L33.717 19.2718C32.5807 18.9451 31.681 18.4787 31.0182 17.8726C30.3553 17.2666 30.0238 16.4735 30.0238 15.4934C30.0238 14.679 30.244 13.9687 30.6843 13.3627C31.1294 12.7519 31.726 12.2784 32.4741 11.9422C33.227 11.6013 34.0674 11.4309 34.9954 11.4309C35.9329 11.4309 36.7663 11.5989 37.4954 11.9351C38.2246 12.2666 38.8022 12.7211 39.2284 13.2987C39.6593 13.8764 39.8865 14.5322 39.9102 15.2661H38.2057ZM44.4539 19.6127V26.1752H42.7777V11.6297H44.4539V16.9706H44.5959C44.8516 16.4072 45.2351 15.9597 45.7465 15.6283C46.2626 15.2921 46.9491 15.124 47.8062 15.124C48.5495 15.124 49.2006 15.2732 49.7593 15.5715C50.318 15.865 50.7512 16.3172 51.059 16.928C51.3715 17.5341 51.5277 18.3059 51.5277 19.2434V26.1752H49.8516V19.357C49.8516 18.4905 49.6267 17.8205 49.1769 17.347C48.7318 16.8688 48.1139 16.6297 47.3232 16.6297C46.774 16.6297 46.2815 16.7457 45.8459 16.9777C45.4151 17.2097 45.0741 17.5483 44.8232 17.9934C44.577 18.4384 44.4539 18.9782 44.4539 19.6127ZM59.026 26.4024C58.0411 26.4024 57.177 26.1681 56.4336 25.6993C55.695 25.2306 55.1174 24.5748 54.7007 23.732C54.2888 22.8892 54.0828 21.9043 54.0828 20.7774C54.0828 19.6411 54.2888 18.6491 54.7007 17.8016C55.1174 16.9541 55.695 16.2959 56.4336 15.8272C57.177 15.3584 58.0411 15.124 59.026 15.124C60.0108 15.124 60.8726 15.3584 61.6112 15.8272C62.3546 16.2959 62.9322 16.9541 63.3441 17.8016C63.7608 18.6491 63.9691 19.6411 63.9691 20.7774C63.9691 21.9043 63.7608 22.8892 63.3441 23.732C62.9322 24.5748 62.3546 25.2306 61.6112 25.6993C60.8726 26.1681 60.0108 26.4024 59.026 26.4024ZM59.026 24.8968C59.7741 24.8968 60.3896 24.705 60.8726 24.3215C61.3555 23.938 61.713 23.4337 61.945 22.8087C62.177 22.1837 62.293 21.5066 62.293 20.7774C62.293 20.0483 62.177 19.3688 61.945 18.7391C61.713 18.1094 61.3555 17.6004 60.8726 17.2121C60.3896 16.8238 59.7741 16.6297 59.026 16.6297C58.2779 16.6297 57.6623 16.8238 57.1794 17.2121C56.6964 17.6004 56.3389 18.1094 56.1069 18.7391C55.8749 19.3688 55.7589 20.0483 55.7589 20.7774C55.7589 21.5066 55.8749 22.1837 56.1069 22.8087C56.3389 23.4337 56.6964 23.938 57.1794 24.3215C57.6623 24.705 58.2779 24.8968 59.026 24.8968ZM66.5277 30.2661V15.2661H68.1471V16.999H68.3459C68.469 16.8096 68.6395 16.5682 68.8573 16.2746C69.0798 15.9763 69.3971 15.7112 69.809 15.4791C70.2257 15.2424 70.7891 15.124 71.4993 15.124C72.4179 15.124 73.2276 15.3537 73.9283 15.813C74.6291 16.2722 75.1759 16.9233 75.5689 17.7661C75.9619 18.6089 76.1584 19.6032 76.1584 20.749C76.1584 21.9043 75.9619 22.9058 75.5689 23.7533C75.1759 24.5961 74.6314 25.2495 73.9354 25.7135C73.2394 26.1728 72.4368 26.4024 71.5277 26.4024C70.827 26.4024 70.2659 26.2864 69.8445 26.0544C69.4231 25.8177 69.0988 25.5502 68.8715 25.2519C68.6442 24.9488 68.469 24.6979 68.3459 24.499H68.2039V30.2661H66.5277ZM68.1755 20.7206C68.1755 21.5445 68.2962 22.2713 68.5377 22.901C68.7792 23.526 69.1319 24.0161 69.5959 24.3712C70.0599 24.7216 70.6281 24.8968 71.3005 24.8968C72.0012 24.8968 72.586 24.7121 73.0547 24.3428C73.5282 23.9687 73.8833 23.4668 74.1201 22.8371C74.3616 22.2026 74.4823 21.4971 74.4823 20.7206C74.4823 19.9536 74.3639 19.2623 74.1272 18.6468C73.8952 18.0265 73.5424 17.5364 73.0689 17.1766C72.6002 16.812 72.0107 16.6297 71.3005 16.6297C70.6187 16.6297 70.0457 16.8025 69.5817 17.1482C69.1177 17.4891 68.7673 17.9673 68.5306 18.5828C68.2938 19.1936 68.1755 19.9062 68.1755 20.7206ZM78.7152 30.2661V15.2661H80.3346V16.999H80.5334C80.6565 16.8096 80.827 16.5682 81.0448 16.2746C81.2673 15.9763 81.5846 15.7112 81.9965 15.4791C82.4132 15.2424 82.9766 15.124 83.6868 15.124C84.6054 15.124 85.4151 15.3537 86.1158 15.813C86.8166 16.2722 87.3634 16.9233 87.7564 17.7661C88.1494 18.6089 88.3459 19.6032 88.3459 20.749C88.3459 21.9043 88.1494 22.9058 87.7564 23.7533C87.3634 24.5961 86.8189 25.2495 86.1229 25.7135C85.4269 26.1728 84.6243 26.4024 83.7152 26.4024C83.0145 26.4024 82.4534 26.2864 82.032 26.0544C81.6106 25.8177 81.2863 25.5502 81.059 25.2519C80.8317 24.9488 80.6565 24.6979 80.5334 24.499H80.3914V30.2661H78.7152ZM80.363 20.7206C80.363 21.5445 80.4837 22.2713 80.7252 22.901C80.9667 23.526 81.3194 24.0161 81.7834 24.3712C82.2474 24.7216 82.8156 24.8968 83.488 24.8968C84.1887 24.8968 84.7735 24.7121 85.2422 24.3428C85.7157 23.9687 86.0708 23.4668 86.3076 22.8371C86.5491 22.2026 86.6698 21.4971 86.6698 20.7206C86.6698 19.9536 86.5514 19.2623 86.3147 18.6468C86.0827 18.0265 85.7299 17.5364 85.2564 17.1766C84.7877 16.812 84.1982 16.6297 83.488 16.6297C82.8062 16.6297 82.2332 16.8025 81.7692 17.1482C81.3052 17.4891 80.9548 17.9673 80.7181 18.5828C80.4813 19.1936 80.363 19.9062 80.363 20.7206ZM91.5917 30.2661C91.3076 30.2661 91.0543 30.2424 90.8317 30.1951C90.6092 30.1524 90.4553 30.1098 90.3701 30.0672L90.7962 28.5899C91.2034 28.6941 91.5633 28.732 91.8758 28.7036C92.1883 28.6752 92.4652 28.5355 92.7067 28.2845C92.9529 28.0383 93.1778 27.6382 93.3814 27.0843L93.6939 26.232L89.6598 15.2661H91.478L94.4894 23.9593H94.603L97.6144 15.2661H99.4326L94.8019 27.7661C94.5936 28.3295 94.3355 28.7959 94.0277 29.1652C93.72 29.5393 93.3625 29.8163 92.9553 29.9962C92.5528 30.1761 92.0983 30.2661 91.5917 30.2661Z" fill="#373845"/>
<path d="M20.3491 6.17517V31.0024" stroke="#2F323A" stroke-miterlimit="10"/>
</svg>
