<svg width="630" height="489" viewBox="0 0 630 489" fill="none" xmlns="http://www.w3.org/2000/svg">
<path d="M405.908 100.228H60.5656C33.907 100.228 12.5393 78.6569 12.5393 52.2017V48.9456C12.5393 22.287 34.1105 0.919312 60.5656 0.919312H405.908C432.566 0.919312 453.934 22.4905 453.934 48.9456V52.2017C454.137 78.8604 432.566 100.228 405.908 100.228Z" fill="#F0F0EE"/>
<path d="M556.905 183.664H211.563C184.904 183.664 163.537 162.092 163.537 135.637V132.381C163.537 105.723 185.108 84.3549 211.563 84.3549H556.905C583.564 84.3549 604.931 105.926 604.931 132.381V135.637C604.931 162.092 583.36 183.664 556.905 183.664Z" fill="#F0F0EE"/>
<path d="M393.494 258.552H48.1518C21.4931 258.552 0.125488 236.981 0.125488 210.526V207.27C0.125488 180.611 21.6966 159.243 48.1518 159.243H393.494C420.152 159.243 441.52 180.815 441.52 207.27V210.526C441.724 236.981 420.152 258.552 393.494 258.552Z" fill="#F0F0EE"/>
<path d="M425.444 350.128H79.8982C53.2395 350.128 31.8718 328.557 31.8718 302.101V298.845C31.8718 272.187 53.443 250.819 79.8982 250.819H425.24C451.899 250.819 473.266 272.39 473.266 298.845V302.101C473.47 328.557 451.899 350.128 425.444 350.128Z" fill="#F0F0EE"/>
<path d="M545.509 397.34H200.167C173.509 397.34 152.141 375.769 152.141 349.314V346.058C152.141 319.399 173.712 298.031 200.167 298.031H545.509C572.168 298.031 593.536 319.602 593.536 346.058V349.314C593.739 375.769 572.168 397.34 545.509 397.34Z" fill="#F0F0EE"/>
<path d="M454.544 481.997H108.998C82.3397 481.997 60.972 460.425 60.972 433.97V430.714C60.972 404.055 82.5432 382.688 108.998 382.688H454.544C481.202 382.688 502.57 404.259 502.57 430.714V433.97C502.57 460.425 480.999 481.997 454.544 481.997Z" fill="#F0F0EE"/>
<path d="M359.305 328.353H255.723V461.239H359.305V328.353Z" fill="#8A8D91"/>
<path d="M359.305 328.353H255.723V461.239H359.305V328.353Z" fill="white" stroke="#2F323A" stroke-miterlimit="10" stroke-linecap="round" stroke-linejoin="round"/>
<path d="M514.577 343.412H100.451C90.0729 343.412 81.7294 335.069 81.7294 324.69V45.2826C81.7294 34.9041 90.0729 26.5605 100.451 26.5605H514.78C525.159 26.5605 533.502 34.9041 533.502 45.2826V324.894C533.299 335.069 524.955 343.412 514.577 343.412Z" fill="white" stroke="#2F323A" stroke-miterlimit="10" stroke-linecap="round" stroke-linejoin="round"/>
<path d="M100.451 26.5605H514.78C525.159 26.5605 533.502 34.9041 533.502 45.2826V311.666H81.7294V45.2826C81.7294 34.9041 90.0729 26.5605 100.451 26.5605Z" fill="#2F323A"/>
<path d="M507.658 52.4052H110.017V285.007H507.658V52.4052Z" fill="white"/>
<path d="M381.284 461.239H233.948V483.625H381.284V461.239Z" fill="white" stroke="#2F323A" stroke-miterlimit="10" stroke-linecap="round" stroke-linejoin="round"/>
<path d="M117.343 84.3548H113.476C105.743 84.3548 99.4344 78.0463 99.4344 70.3132V43.858H131.384V70.3132C131.588 78.0463 125.279 84.3548 117.343 84.3548Z" fill="#5CDDBC"/>
<path d="M181.445 84.3548H177.579C169.846 84.3548 163.537 78.0463 163.537 70.3132V43.858H195.487V70.3132C195.487 78.0463 189.382 84.3548 181.445 84.3548Z" fill="#5CDDBC"/>
<path d="M149.496 84.3548H145.629C137.896 84.3548 131.587 78.0463 131.587 70.3132V43.858H163.537V70.3132C163.537 78.0463 157.229 84.3548 149.496 84.3548Z" fill="#1EBA7B"/>
<path d="M245.549 84.3548H241.682C233.949 84.3548 227.641 78.0463 227.641 70.3132V43.858H259.59V70.3132C259.59 78.0463 253.282 84.3548 245.549 84.3548Z" fill="#5CDDBC"/>
<path d="M213.599 84.3548H209.732C201.999 84.3548 195.691 78.0463 195.691 70.3132V43.858H227.64V70.3132C227.64 78.0463 221.332 84.3548 213.599 84.3548Z" fill="#1EBA7B"/>
<path d="M309.652 84.3548H305.785C298.052 84.3548 291.744 78.0463 291.744 70.3132V43.858H323.693V70.3132C323.693 78.0463 317.385 84.3548 309.652 84.3548Z" fill="#5CDDBC"/>
<path d="M277.702 84.3548H273.835C266.102 84.3548 259.793 78.0463 259.793 70.3132V43.858H291.743V70.3132C291.743 78.0463 285.435 84.3548 277.702 84.3548Z" fill="#1EBA7B"/>
<path d="M323.897 41.2125H99.4344V43.858H323.897V41.2125Z" fill="#1EBA7B"/>
<path d="M373.145 84.3548H369.278C361.545 84.3548 355.237 78.0463 355.237 70.3132V43.858H387.186V70.3132C387.186 78.0463 380.878 84.3548 373.145 84.3548Z" fill="#5CDDBC"/>
<path d="M341.195 84.3548H337.328C329.595 84.3548 323.287 78.0463 323.287 70.3132V43.858H355.237V70.3132C355.237 78.0463 348.928 84.3548 341.195 84.3548Z" fill="#1EBA7B"/>
<path d="M437.248 84.3548H433.381C425.648 84.3548 419.339 78.0463 419.339 70.3132V43.858H451.289V70.3132C451.289 78.0463 444.981 84.3548 437.248 84.3548Z" fill="#5CDDBC"/>
<path d="M405.297 84.3548H401.431C393.698 84.3548 387.389 78.0463 387.389 70.3132V43.858H419.339V70.3132C419.339 78.0463 413.03 84.3548 405.297 84.3548Z" fill="#1EBA7B"/>
<path d="M501.35 84.3548H497.484C489.751 84.3548 483.442 78.0463 483.442 70.3132V43.858H515.392V70.3132C515.392 78.0463 509.083 84.3548 501.35 84.3548Z" fill="#5CDDBC"/>
<path d="M469.196 84.3548H465.33C457.597 84.3548 451.288 78.0463 451.288 70.3132V43.858H483.238V70.3132C483.442 78.0463 477.133 84.3548 469.196 84.3548Z" fill="#1EBA7B"/>
<path d="M515.596 41.2125H291.134V43.858H515.596V41.2125Z" fill="#1EBA7B"/>
<path d="M216.198 124.431C215.964 122.452 215.013 120.916 213.346 119.822C211.68 118.728 209.636 118.181 207.214 118.181C205.443 118.181 203.893 118.468 202.565 119.041C201.25 119.614 200.221 120.401 199.479 121.404C198.75 122.407 198.386 123.546 198.386 124.822C198.386 125.89 198.639 126.808 199.147 127.576C199.668 128.331 200.332 128.963 201.139 129.47C201.947 129.965 202.793 130.375 203.679 130.701C204.564 131.013 205.378 131.267 206.12 131.463L210.182 132.556C211.224 132.83 212.383 133.207 213.659 133.689C214.948 134.171 216.179 134.829 217.35 135.662C218.535 136.482 219.512 137.537 220.28 138.826C221.048 140.115 221.432 141.697 221.432 143.572C221.432 145.734 220.866 147.687 219.733 149.431C218.613 151.176 216.973 152.563 214.811 153.592C212.663 154.62 210.052 155.135 206.979 155.135C204.115 155.135 201.634 154.672 199.538 153.748C197.455 152.823 195.814 151.534 194.616 149.881C193.431 148.227 192.761 146.306 192.604 144.119H197.604C197.735 145.629 198.242 146.879 199.128 147.869C200.026 148.845 201.159 149.575 202.526 150.056C203.906 150.525 205.391 150.76 206.979 150.76C208.828 150.76 210.488 150.46 211.96 149.861C213.431 149.249 214.596 148.403 215.456 147.322C216.315 146.228 216.745 144.952 216.745 143.494C216.745 142.166 216.374 141.085 215.632 140.252C214.889 139.418 213.913 138.741 212.702 138.22C211.491 137.7 210.182 137.244 208.776 136.853L203.854 135.447C200.729 134.549 198.255 133.266 196.432 131.599C194.61 129.933 193.698 127.752 193.698 125.056C193.698 122.817 194.304 120.864 195.514 119.197C196.738 117.517 198.379 116.215 200.436 115.291C202.507 114.353 204.818 113.885 207.37 113.885C209.948 113.885 212.24 114.347 214.245 115.271C216.25 116.183 217.839 117.433 219.011 119.021C220.195 120.61 220.82 122.413 220.886 124.431H216.198ZM237.599 155.135C235.698 155.135 233.973 154.776 232.424 154.06C230.874 153.331 229.644 152.283 228.732 150.916C227.821 149.536 227.365 147.869 227.365 145.916C227.365 144.197 227.704 142.804 228.381 141.736C229.058 140.655 229.963 139.809 231.096 139.197C232.228 138.585 233.478 138.129 234.846 137.83C236.226 137.517 237.612 137.27 239.006 137.088C240.829 136.853 242.306 136.678 243.439 136.56C244.585 136.43 245.418 136.215 245.939 135.916C246.473 135.616 246.74 135.095 246.74 134.353V134.197C246.74 132.27 246.213 130.773 245.158 129.705C244.116 128.637 242.534 128.103 240.412 128.103C238.211 128.103 236.486 128.585 235.236 129.549C233.986 130.512 233.107 131.541 232.599 132.635L228.224 131.072C229.006 129.249 230.047 127.83 231.349 126.814C232.665 125.786 234.097 125.069 235.646 124.666C237.209 124.249 238.745 124.041 240.256 124.041C241.219 124.041 242.326 124.158 243.576 124.392C244.839 124.614 246.056 125.076 247.228 125.779C248.413 126.482 249.396 127.543 250.178 128.963C250.959 130.382 251.349 132.283 251.349 134.666V154.431H246.74V150.369H246.506C246.193 151.02 245.672 151.717 244.943 152.459C244.214 153.201 243.244 153.832 242.033 154.353C240.822 154.874 239.344 155.135 237.599 155.135ZM238.303 150.994C240.125 150.994 241.662 150.636 242.912 149.92C244.175 149.204 245.125 148.279 245.763 147.146C246.415 146.013 246.74 144.822 246.74 143.572V139.353C246.545 139.588 246.115 139.803 245.451 139.998C244.8 140.18 244.045 140.343 243.185 140.486C242.339 140.616 241.512 140.734 240.705 140.838C239.911 140.929 239.266 141.007 238.771 141.072C237.573 141.228 236.454 141.482 235.412 141.834C234.383 142.172 233.55 142.687 232.912 143.377C232.287 144.054 231.974 144.978 231.974 146.15C231.974 147.752 232.567 148.963 233.752 149.783C234.95 150.59 236.467 150.994 238.303 150.994ZM264.372 114.431V154.431H259.763V114.431H264.372ZM285.392 155.056C282.502 155.056 280.008 154.418 277.912 153.142C275.829 151.853 274.221 150.056 273.088 147.752C271.968 145.434 271.408 142.739 271.408 139.666C271.408 136.593 271.968 133.885 273.088 131.541C274.221 129.184 275.796 127.348 277.814 126.033C279.846 124.705 282.215 124.041 284.924 124.041C286.486 124.041 288.029 124.301 289.553 124.822C291.076 125.343 292.463 126.189 293.713 127.361C294.963 128.52 295.959 130.056 296.701 131.97C297.443 133.885 297.814 136.241 297.814 139.041V140.994H274.689V137.01H293.127C293.127 135.317 292.788 133.806 292.111 132.478C291.447 131.15 290.497 130.102 289.26 129.334C288.036 128.566 286.59 128.181 284.924 128.181C283.088 128.181 281.499 128.637 280.158 129.549C278.83 130.447 277.808 131.619 277.092 133.064C276.375 134.51 276.017 136.059 276.017 137.713V140.369C276.017 142.635 276.408 144.555 277.189 146.131C277.984 147.693 279.084 148.885 280.49 149.705C281.896 150.512 283.53 150.916 285.392 150.916C286.603 150.916 287.697 150.747 288.674 150.408C289.663 150.056 290.516 149.536 291.232 148.845C291.948 148.142 292.502 147.27 292.892 146.228L297.346 147.478C296.877 148.989 296.089 150.317 294.982 151.463C293.875 152.595 292.508 153.481 290.881 154.119C289.253 154.744 287.424 155.056 285.392 155.056ZM332.717 154.978C330.425 154.978 328.361 154.523 326.525 153.611C324.689 152.7 323.218 151.45 322.111 149.861C321.004 148.273 320.399 146.463 320.295 144.431H324.982C325.165 146.241 325.985 147.739 327.443 148.924C328.915 150.095 330.672 150.681 332.717 150.681C334.357 150.681 335.816 150.297 337.092 149.529C338.381 148.761 339.39 147.706 340.119 146.365C340.861 145.011 341.232 143.481 341.232 141.775C341.232 140.03 340.848 138.474 340.08 137.107C339.325 135.727 338.283 134.64 336.955 133.845C335.627 133.051 334.11 132.648 332.404 132.635C331.18 132.622 329.924 132.81 328.635 133.201C327.346 133.579 326.284 134.067 325.451 134.666L320.92 134.119L323.342 114.431H344.123V118.728H327.404L325.998 130.525H326.232C327.053 129.874 328.081 129.334 329.318 128.904C330.555 128.474 331.844 128.26 333.185 128.26C335.633 128.26 337.814 128.845 339.728 130.017C341.655 131.176 343.166 132.765 344.26 134.783C345.366 136.801 345.92 139.106 345.92 141.697C345.92 144.249 345.347 146.528 344.201 148.533C343.068 150.525 341.506 152.101 339.513 153.26C337.521 154.405 335.256 154.978 332.717 154.978ZM366.725 154.978C363.783 154.978 361.276 154.178 359.206 152.576C357.136 150.961 355.554 148.624 354.46 145.564C353.366 142.491 352.819 138.78 352.819 134.431C352.819 130.109 353.366 126.417 354.46 123.357C355.567 120.284 357.155 117.941 359.225 116.326C361.309 114.698 363.809 113.885 366.725 113.885C369.642 113.885 372.136 114.698 374.206 116.326C376.289 117.941 377.878 120.284 378.971 123.357C380.078 126.417 380.632 130.109 380.632 134.431C380.632 138.78 380.085 142.491 378.991 145.564C377.897 148.624 376.315 150.961 374.245 152.576C372.175 154.178 369.668 154.978 366.725 154.978ZM366.725 150.681C369.642 150.681 371.908 149.275 373.522 146.463C375.137 143.65 375.944 139.64 375.944 134.431C375.944 130.968 375.573 128.019 374.831 125.584C374.102 123.149 373.047 121.293 371.667 120.017C370.3 118.741 368.652 118.103 366.725 118.103C363.835 118.103 361.576 119.529 359.948 122.381C358.32 125.219 357.507 129.236 357.507 134.431C357.507 137.895 357.871 140.838 358.6 143.26C359.33 145.681 360.378 147.524 361.745 148.787C363.125 150.05 364.785 150.681 366.725 150.681ZM408.444 146.931V144.822C408.444 143.364 408.744 142.029 409.343 140.818C409.955 139.594 410.84 138.618 411.999 137.888C413.171 137.146 414.59 136.775 416.257 136.775C417.949 136.775 419.369 137.146 420.514 137.888C421.66 138.618 422.526 139.594 423.112 140.818C423.698 142.029 423.991 143.364 423.991 144.822V146.931C423.991 148.39 423.692 149.731 423.093 150.955C422.507 152.166 421.634 153.142 420.475 153.885C419.33 154.614 417.923 154.978 416.257 154.978C414.564 154.978 413.138 154.614 411.979 153.885C410.82 153.142 409.942 152.166 409.343 150.955C408.744 149.731 408.444 148.39 408.444 146.931ZM412.429 144.822V146.931C412.429 148.142 412.715 149.23 413.288 150.193C413.861 151.144 414.85 151.619 416.257 151.619C417.624 151.619 418.587 151.144 419.147 150.193C419.72 149.23 420.007 148.142 420.007 146.931V144.822C420.007 143.611 419.733 142.53 419.186 141.58C418.639 140.616 417.663 140.135 416.257 140.135C414.889 140.135 413.906 140.616 413.307 141.58C412.721 142.53 412.429 143.611 412.429 144.822ZM388.522 124.041V121.931C388.522 120.473 388.822 119.138 389.421 117.928C390.033 116.704 390.918 115.727 392.077 114.998C393.249 114.256 394.668 113.885 396.335 113.885C398.027 113.885 399.447 114.256 400.593 114.998C401.738 115.727 402.604 116.704 403.19 117.928C403.776 119.138 404.069 120.473 404.069 121.931V124.041C404.069 125.499 403.77 126.84 403.171 128.064C402.585 129.275 401.712 130.252 400.554 130.994C399.408 131.723 398.001 132.088 396.335 132.088C394.642 132.088 393.216 131.723 392.057 130.994C390.899 130.252 390.02 129.275 389.421 128.064C388.822 126.84 388.522 125.499 388.522 124.041ZM392.507 121.931V124.041C392.507 125.252 392.793 126.339 393.366 127.303C393.939 128.253 394.929 128.728 396.335 128.728C397.702 128.728 398.666 128.253 399.225 127.303C399.798 126.339 400.085 125.252 400.085 124.041V121.931C400.085 120.72 399.811 119.64 399.264 118.689C398.718 117.726 397.741 117.244 396.335 117.244C394.968 117.244 393.985 117.726 393.386 118.689C392.8 119.64 392.507 120.72 392.507 121.931ZM390.007 154.431L417.507 114.431H421.96L394.46 154.431H390.007Z" fill="#B2BAC1"/>
<path d="M215.634 191.193H166.59V240.237H215.634V191.193Z" fill="#5CDDBC"/>
<path d="M284.011 203.403H231.101C229.473 203.403 228.048 201.979 228.048 200.351C228.048 198.723 229.473 197.298 231.101 197.298H284.011C285.639 197.298 287.064 198.723 287.064 200.351C287.064 201.979 285.639 203.403 284.011 203.403Z" fill="#5CDDBC"/>
<path d="M284.011 219.073H231.101C229.473 219.073 228.048 217.648 228.048 216.02C228.048 214.392 229.473 212.968 231.101 212.968H284.011C285.639 212.968 287.064 214.392 287.064 216.02C287.064 217.648 285.639 219.073 284.011 219.073Z" fill="#5CDDBC"/>
<path d="M258.777 234.539H231.304C229.676 234.539 228.252 233.114 228.252 231.486C228.252 229.858 229.676 228.434 231.304 228.434H258.777C260.405 228.434 261.83 229.858 261.83 231.486C261.83 233.114 260.405 234.539 258.777 234.539Z" fill="#5CDDBC"/>
<path d="M377.01 191.193H327.966V240.237H377.01V191.193Z" fill="#5CDDBC"/>
<path d="M445.183 203.403H392.273C390.645 203.403 389.22 201.979 389.22 200.351C389.22 198.723 390.645 197.298 392.273 197.298H445.183C446.811 197.298 448.236 198.723 448.236 200.351C448.439 201.979 447.014 203.403 445.183 203.403Z" fill="#5CDDBC"/>
<path d="M445.183 219.073H392.273C390.645 219.073 389.22 217.648 389.22 216.02C389.22 214.392 390.645 212.968 392.273 212.968H445.183C446.811 212.968 448.236 214.392 448.236 216.02C448.439 217.648 447.015 219.073 445.183 219.073Z" fill="#5CDDBC"/>
<path d="M419.95 234.539H392.477C390.849 234.539 389.424 233.114 389.424 231.486C389.424 229.858 390.849 228.434 392.477 228.434H419.95C421.578 228.434 423.002 229.858 423.002 231.486C423.002 233.114 421.781 234.539 419.95 234.539Z" fill="#5CDDBC"/>
<path d="M604.931 351.145H516.001V483.014H604.931V351.145Z" fill="white" stroke="#2F323A" stroke-miterlimit="10" stroke-linecap="round" stroke-linejoin="round"/>
<path d="M571.557 352.366H549.376V481.59H571.557V352.366Z" fill="#5CDDBC"/>
<path d="M610.63 335.476H510.304V366.611H610.63V335.476Z" fill="white" stroke="#2F323A" stroke-miterlimit="10" stroke-linecap="round" stroke-linejoin="round"/>
<path d="M542.66 408.94H468.789V482.811H542.66V408.94Z" fill="white" stroke="#2F323A" stroke-miterlimit="10" stroke-linecap="round" stroke-linejoin="round"/>
<path d="M541.979 455.146V436.628H469.737V455.146H541.979Z" fill="#5CDDBC"/>
<path d="M547.544 400.393H464.109V417.894H547.544V400.393Z" fill="white" stroke="#2F323A" stroke-miterlimit="10" stroke-linecap="round" stroke-linejoin="round"/>
<path d="M441.722 148.051H402.243V208.491H441.722V148.051Z" fill="#5CDDBC"/>
<path d="M441.926 149.272C441.926 151.103 441.722 152.935 441.112 154.563C438.873 162.906 431.14 169.011 421.983 169.011C410.994 169.011 402.243 160.057 402.243 149.272C402.243 148.458 402.243 147.847 402.446 147.033C403.057 142.353 405.092 138.283 408.348 135.027C410.383 132.992 412.825 131.567 415.674 130.55C417.709 129.736 419.948 129.532 422.186 129.532C423.407 129.532 424.425 129.532 425.442 129.736C425.646 129.736 425.646 129.736 425.849 129.736C426.053 129.736 426.256 129.736 426.46 129.939C435.21 131.771 441.926 139.707 441.926 149.272Z" fill="#5CDDBC"/>
<path d="M417.709 206.456C417.505 207.27 417.302 207.88 416.895 208.694L394.713 258.552C392.475 263.639 386.777 266.489 381.282 265.268L352.385 258.755L356.862 238.812L377.009 240.033L395.324 199.13C397.969 193.228 404.888 190.582 410.993 193.228C416.284 195.467 418.93 201.165 417.709 206.456Z" fill="#2F323A" stroke="#2F323A" stroke-miterlimit="10"/>
<path d="M320.639 253.057C321.25 252.65 321.657 252.447 322.267 252.04L352.589 258.756L357.066 238.812L325.93 236.981C323.895 232.911 319.825 230.062 314.941 230.062C308.225 230.062 302.731 235.556 302.731 242.272C302.731 248.987 308.225 254.482 314.941 254.482C316.976 254.482 319.011 254.075 320.639 253.057Z" fill="white" stroke="#2F323A" stroke-miterlimit="10" stroke-linecap="round" stroke-linejoin="round"/>
<path d="M466.16 415.797L453.311 424.764L463.444 439.282L476.293 430.315L466.16 415.797Z" fill="white" stroke="#2F323A" stroke-miterlimit="10" stroke-linecap="round" stroke-linejoin="round"/>
<path d="M493.412 441.296L437.856 480.165L436.024 477.519L455.968 438.651L478.556 422.981L493.412 441.296Z" fill="#2F323A"/>
<path d="M447.42 452.285L459.63 450.657" stroke="white" stroke-miterlimit="10"/>
<path d="M445.385 457.169L456.578 455.745" stroke="white" stroke-miterlimit="10"/>
<path d="M442.943 462.053L451.49 461.443" stroke="white" stroke-miterlimit="10"/>
<path d="M491.988 439.261L436.432 478.13" stroke="white" stroke-miterlimit="10"/>
<path d="M472.857 421.353L453.728 434.581L416.691 396.323L408.551 387.979L381.689 360.506L422.796 320.009L434.803 342.598L441.111 354.401L472.857 421.353Z" fill="white" stroke="#2F323A" stroke-miterlimit="10" stroke-linecap="round" stroke-linejoin="round"/>
<path d="M441.111 354.401L416.691 396.323L408.551 387.979L434.803 342.598L441.111 354.401Z" fill="#2F323A"/>
<path d="M453.526 223.346L451.898 231.486L442.537 276.664H396.545L395.731 244.714C387.795 230.062 391.661 219.073 397.563 209.508L408.755 190.99H434.6C442.74 190.99 447.421 194.246 449.863 199.537C450.677 201.368 451.491 203.403 451.898 205.642C453.322 210.729 453.526 216.834 453.526 223.346Z" fill="#2F323A"/>
<path d="M510.098 209.915L488.324 236.37C486.085 239.016 483.033 240.644 479.777 240.847C479.37 240.847 478.963 240.847 478.556 240.847C475.503 240.847 472.654 239.83 470.416 237.795L443.35 215.003C440.297 212.561 438.873 208.898 438.873 205.235C438.873 202.386 439.89 199.537 441.925 197.095C446.402 191.803 454.542 190.989 459.833 195.67L477.131 210.119L496.26 191.6L510.098 209.915Z" fill="#2F323A"/>
<path d="M551.002 166.162C549.985 165.145 548.357 165.145 547.339 166.162L542.252 171.25C542.252 171.046 542.252 171.046 542.252 170.843L550.392 162.906C551.613 161.685 551.613 159.854 550.392 158.633C549.171 157.412 547.339 157.412 546.118 158.633L539.606 165.145C539.606 165.145 539.606 165.145 539.606 164.941L548.764 155.784C549.985 154.563 549.985 152.731 548.764 151.51C547.543 150.289 545.711 150.289 544.49 151.51L534.722 161.278H534.519L542.455 153.342C543.676 152.121 543.676 150.289 542.455 149.068C541.234 147.847 539.403 147.847 538.182 149.068L526.786 160.464C520.477 161.482 515.797 166.976 515.593 173.488L496.464 192.007L510.709 209.915L529.228 187.53C529.635 187.53 530.245 187.53 530.652 187.53C535.536 187.123 551.613 170.029 551.613 170.029C552.02 169.011 552.02 167.383 551.002 166.162Z" fill="white" stroke="#2F323A" stroke-miterlimit="10" stroke-linecap="round" stroke-linejoin="round"/>
<path d="M584.174 201.368H533.706C531.06 201.368 528.822 199.13 528.822 196.484V160.871C528.822 158.226 531.06 155.987 533.706 155.987H584.174C586.82 155.987 589.058 158.226 589.058 160.871V196.484C589.058 199.13 586.82 201.368 584.174 201.368Z" fill="#2F323A"/>
<path d="M589.058 167.587H528.822V174.71H589.058V167.587Z" fill="white"/>
<path d="M528.822 163.313H589.058" stroke="#5CDDBC" stroke-miterlimit="10"/>
<path d="M554.462 192.414H533.298V195.06H554.462V192.414Z" fill="white"/>
<path d="M561.584 192.414H556.09V195.06H561.584V192.414Z" fill="white"/>
<path d="M583.97 192.414H578.475V195.06H583.97V192.414Z" fill="white"/>
<path d="M583.97 178.983H578.475V181.628H583.97V178.983Z" fill="white"/>
<path d="M543.88 178.983H533.298V181.628H543.88V178.983Z" fill="white"/>
<path d="M524.752 170.029C526.176 172.878 529.636 173.895 532.485 172.471C535.13 171.25 536.148 168.197 535.334 165.552L540.218 163.11C541.846 162.296 542.456 160.261 541.642 158.633C540.828 157.005 538.793 156.394 537.165 157.208L527.194 162.092" fill="white"/>
<path d="M524.752 170.029C526.176 172.878 529.636 173.895 532.485 172.471C535.13 171.25 536.148 168.197 535.334 165.552L540.218 163.11C541.846 162.296 542.456 160.261 541.642 158.633C540.828 157.005 538.793 156.394 537.165 157.208L527.194 162.092" stroke="#2F323A" stroke-miterlimit="10" stroke-linecap="round" stroke-linejoin="round"/>
<path d="M442.943 155.173C444.775 156.801 444.164 160.261 441.722 162.703C439.28 165.348 436.024 166.162 434.193 164.534C432.361 162.906 432.972 159.447 435.414 157.005C437.856 154.359 441.112 153.749 442.943 155.173Z" fill="white" stroke="#2F323A" stroke-miterlimit="10" stroke-linecap="round" stroke-linejoin="round"/>
<path d="M440.501 158.226L436.635 162.092" stroke="#2F323A" stroke-miterlimit="10" stroke-linecap="round" stroke-linejoin="round"/>
<path d="M400.412 156.191C398.58 157.819 399.191 161.278 401.633 163.72C404.075 166.366 407.331 167.18 409.162 165.552C410.994 163.924 410.383 160.464 407.941 158.022C405.499 155.377 402.04 154.563 400.412 156.191Z" fill="white" stroke="#2F323A" stroke-miterlimit="10" stroke-linecap="round" stroke-linejoin="round"/>
<path d="M402.447 159.447L406.11 162.703" stroke="#2F323A" stroke-miterlimit="10" stroke-linecap="round" stroke-linejoin="round"/>
<path d="M424.221 205.845C417.913 205.845 413.029 200.758 413.029 194.653V164.738H435.617V194.653C435.617 200.758 430.53 205.845 424.221 205.845Z" fill="white" stroke="#2F323A" stroke-miterlimit="10" stroke-linecap="round" stroke-linejoin="round"/>
<path d="M435.617 165.552V169.215C435.617 179.187 429.716 187.327 422.39 187.327H418.116C416.285 187.327 414.657 186.92 413.029 185.902V176.134C415.064 177.559 417.506 178.576 420.151 178.576C426.663 178.576 432.158 173.285 434.396 165.552H435.617Z" fill="#2F323A"/>
<path d="M420.761 135.434C411.4 135.434 403.87 142.963 403.87 152.324V167.587C403.87 175.727 410.382 182.239 418.522 182.239C429.104 182.239 437.652 173.692 437.652 163.11V152.528C437.652 142.963 430.122 135.434 420.761 135.434Z" fill="white" stroke="#2F323A" stroke-miterlimit="10" stroke-linecap="round" stroke-linejoin="round"/>
<path d="M438.466 144.184C436.024 138.893 432.361 134.823 427.884 131.974C427.681 131.974 427.477 131.974 427.274 131.771C427.07 131.771 427.07 131.771 426.867 131.771C425.646 131.567 424.628 131.567 423.407 131.567C420.965 131.567 418.727 131.974 416.488 132.788H416.285C415.674 132.992 415.267 133.195 414.657 133.399C414.453 133.399 414.25 133.602 414.046 133.602C413.639 133.806 413.232 134.009 412.825 134.416C412.622 134.62 412.418 134.62 412.215 134.823C411.808 135.027 411.401 135.434 410.994 135.637C410.79 135.841 410.587 135.841 410.383 136.044C409.773 136.451 409.366 136.858 408.755 137.469C405.296 140.725 403.057 145.202 402.447 150.086C403.261 150.289 403.871 150.493 404.685 150.493C408.145 150.493 410.994 148.051 413.232 143.981C420.151 151.307 430.53 154.359 440.501 151.51C440.298 148.865 439.484 146.423 438.466 144.184Z" fill="#5CDDBC"/>
<path d="M427.884 152.731H421.168" stroke="#2F323A" stroke-miterlimit="10" stroke-linecap="round" stroke-linejoin="round"/>
<path d="M413.029 152.731H406.11" stroke="#2F323A" stroke-miterlimit="10" stroke-linecap="round" stroke-linejoin="round"/>
<path d="M416.082 158.836L413.436 165.552H417.71" fill="white"/>
<path d="M416.082 158.836L413.436 165.552H417.71" stroke="#2F323A" stroke-miterlimit="10" stroke-linecap="round" stroke-linejoin="round"/>
<path d="M414.861 172.878C417.71 173.692 421.169 172.471 422.797 169.825L414.861 172.878Z" fill="white"/>
<path d="M414.861 172.878C417.71 173.692 421.169 172.471 422.797 169.825" stroke="#2F323A" stroke-miterlimit="10" stroke-linecap="round" stroke-linejoin="round"/>
<path d="M422.796 160.871C423.203 160.871 423.61 160.464 423.61 160.057V158.226C423.61 157.819 423.203 157.412 422.796 157.412C422.389 157.412 421.982 157.819 421.982 158.226V160.057C421.779 160.464 422.186 160.871 422.796 160.871Z" fill="#2F323A"/>
<path d="M421.168 157.615H425.849L427.273 156.191" fill="white"/>
<path d="M421.168 157.615H425.849L427.273 156.191" stroke="#2F323A" stroke-miterlimit="10" stroke-linecap="round" stroke-linejoin="round"/>
<path d="M409.163 160.871C409.57 160.871 409.977 160.464 409.977 160.057V158.226C409.977 157.819 409.57 157.412 409.163 157.412C408.756 157.412 408.349 157.819 408.349 158.226V160.057C408.145 160.464 408.552 160.871 409.163 160.871Z" fill="#2F323A"/>
<path d="M411.604 157.615H406.923L405.295 156.191" fill="white"/>
<path d="M411.604 157.615H406.923L405.295 156.191" stroke="#2F323A" stroke-miterlimit="10" stroke-linecap="round" stroke-linejoin="round"/>
<path d="M441.926 173.896H436.431V213.171H441.926V173.896Z" fill="#5CDDBC"/>
<path d="M373.956 445.57H358.286V463.274H373.956V445.57Z" fill="white" stroke="#2F323A" stroke-miterlimit="10" stroke-linecap="round" stroke-linejoin="round"/>
<path d="M381.69 481.997H313.924V478.944L352.385 458.594H379.858L381.69 481.997Z" fill="#2F323A"/>
<path d="M337.734 464.699L348.723 470.397" stroke="white" stroke-miterlimit="10"/>
<path d="M333.256 467.548L343.228 472.839" stroke="white" stroke-miterlimit="10"/>
<path d="M328.372 470.194L335.902 474.467" stroke="white" stroke-miterlimit="10"/>
<path d="M381.69 479.555H313.924" stroke="white" stroke-miterlimit="10"/>
<path d="M379.044 450.657H352.385L396.545 276.664H442.536C444.368 278.088 445.792 280.327 447.217 282.972C452.711 293.554 452.915 305.968 448.438 317.161C446.199 322.859 442.74 329.778 437.449 337.714L379.044 450.657Z" fill="white" stroke="#2F323A" stroke-miterlimit="10" stroke-linecap="round" stroke-linejoin="round"/>
<path d="M362.968 450.657L420.763 295.793" stroke="#5CDDBC" stroke-miterlimit="10"/>
<path d="M314.737 247.36L298.864 260.587C296.829 262.215 293.98 262.012 292.352 259.977C290.724 257.942 290.927 255.093 292.962 253.465L308.836 240.237C310.871 238.609 313.72 238.813 315.348 240.848C316.976 242.883 316.772 245.732 314.737 247.36Z" fill="#2F323A"/>
<path d="M315.755 242.475C313.11 242.882 311.278 244.917 310.668 247.359L305.173 248.377C302.731 248.784 301.307 251.022 301.714 253.261C302.121 255.703 304.359 257.128 306.598 256.721L317.383 254.889H317.587C317.79 254.889 317.79 254.889 317.994 254.889C320.029 254.482 321.657 253.261 322.471 251.633" fill="white"/>
<path d="M315.755 242.475C313.11 242.882 311.278 244.917 310.668 247.359L305.173 248.377C302.731 248.784 301.307 251.022 301.714 253.261C302.121 255.703 304.359 257.128 306.598 256.721L317.383 254.889H317.587C317.79 254.889 317.79 254.889 317.994 254.889C320.029 254.482 321.657 253.261 322.471 251.633" stroke="#2F323A" stroke-miterlimit="10" stroke-linecap="round" stroke-linejoin="round"/>
<path d="M315.755 230.062L306.19 228.027C305.376 227.823 304.562 228.027 303.748 228.434C302.324 228.637 301.103 229.858 300.899 231.486L299.068 242.882C298.661 244.917 300.085 246.749 302.12 247.156C304.155 247.563 305.987 246.139 306.394 244.103L307.615 236.167L313.109 237.388" fill="white"/>
<path d="M315.755 230.062L306.19 228.027C305.376 227.823 304.562 228.027 303.748 228.434C302.324 228.637 301.103 229.858 300.899 231.486L299.068 242.882C298.661 244.917 300.085 246.749 302.12 247.156C304.155 247.563 305.987 246.139 306.394 244.103L307.615 236.167L313.109 237.388" stroke="#2F323A" stroke-miterlimit="10" stroke-linecap="round" stroke-linejoin="round"/>
<path d="M225.604 388.793H120.801L135.453 263.436H211.155L225.604 388.793Z" fill="#5CDDBC"/>
<path d="M152.14 286.228C152.14 284.6 153.565 283.176 155.193 283.176C156.821 283.176 158.245 284.6 158.245 286.228C158.245 287.856 156.821 289.281 155.193 289.281C153.565 289.281 152.14 287.856 152.14 286.228Z" fill="white" stroke="#2F323A" stroke-miterlimit="10" stroke-linecap="round" stroke-linejoin="round"/>
<path d="M188.16 286.228C188.16 284.6 189.585 283.176 191.213 283.176C192.841 283.176 194.265 284.6 194.265 286.228C194.265 287.856 192.841 289.281 191.213 289.281C189.585 289.281 188.16 287.856 188.16 286.228Z" fill="white" stroke="#2F323A" stroke-miterlimit="10" stroke-linecap="round" stroke-linejoin="round"/>
<path d="M155.396 286.228V308.206C155.396 318.178 163.333 326.115 173.304 326.115C183.276 326.115 191.212 318.178 191.212 308.206V286.228" stroke="#2F323A" stroke-miterlimit="10" stroke-linecap="round" stroke-linejoin="round"/>
<path d="M238.222 388.793H171.677L181.038 309.224H229.064L238.222 388.793Z" fill="white" stroke="#2F323A" stroke-miterlimit="10" stroke-linecap="round" stroke-linejoin="round"/>
<path d="M191.619 323.672C191.619 322.655 192.433 321.637 193.654 321.637C194.672 321.637 195.689 322.451 195.689 323.672C195.689 324.69 194.875 325.707 193.654 325.707C192.433 325.504 191.619 324.69 191.619 323.672Z" fill="white" stroke="#2F323A" stroke-miterlimit="10" stroke-linecap="round" stroke-linejoin="round"/>
<path d="M214.411 323.672C214.411 322.655 215.225 321.637 216.446 321.637C217.464 321.637 218.481 322.451 218.481 323.672C218.481 324.69 217.667 325.707 216.446 325.707C215.225 325.504 214.411 324.69 214.411 323.672Z" fill="white" stroke="#2F323A" stroke-miterlimit="10" stroke-linecap="round" stroke-linejoin="round"/>
<path d="M193.654 323.672V337.714C193.654 344.023 198.742 349.11 205.05 349.11C211.359 349.11 216.446 344.023 216.446 337.714V323.672" stroke="#2F323A" stroke-miterlimit="10" stroke-linecap="round" stroke-linejoin="round"/>
<path d="M259.792 388.793H103.503V268.524H293.37L259.792 388.793Z" stroke="#2F323A" stroke-miterlimit="10" stroke-linecap="round" stroke-linejoin="round"/>
<path d="M295.609 260.791L259.792 388.793L268.746 452.489H123.853" stroke="#2F323A" stroke-miterlimit="10" stroke-linecap="round" stroke-linejoin="round"/>
<path d="M263.107 478.352C268.988 472.471 268.988 462.936 263.107 457.055C257.226 451.174 247.691 451.174 241.811 457.055C235.93 462.936 235.93 472.471 241.811 478.352C247.691 484.233 257.226 484.233 263.107 478.352Z" fill="#2F323A"/>
<path d="M242.292 467.751C242.292 462.257 246.769 457.78 252.263 457.78C257.758 457.78 262.235 462.257 262.235 467.751C262.235 473.246 257.758 477.723 252.263 477.723C246.972 477.723 242.292 473.246 242.292 467.751Z" fill="white" stroke="#2F323A" stroke-miterlimit="10" stroke-linecap="round" stroke-linejoin="round"/>
<path d="M155.792 471.283C157.772 463.205 152.828 455.052 144.749 453.072C136.671 451.093 128.518 456.037 126.539 464.115C124.559 472.193 129.503 480.347 137.581 482.326C145.66 484.305 153.813 479.361 155.792 471.283Z" fill="#2F323A"/>
<path d="M131.179 467.751C131.179 462.257 135.656 457.78 141.151 457.78C146.645 457.78 151.122 462.257 151.122 467.751C151.122 473.246 146.645 477.723 141.151 477.723C135.656 477.723 131.179 473.246 131.179 467.751Z" fill="white" stroke="#2F323A" stroke-miterlimit="10" stroke-linecap="round" stroke-linejoin="round"/>
<path d="M120.801 268.32V388.793" stroke="#2F323A" stroke-miterlimit="10" stroke-linecap="round" stroke-linejoin="round"/>
<path d="M141.965 268.32V388.793" stroke="#2F323A" stroke-miterlimit="10" stroke-linecap="round" stroke-linejoin="round"/>
<path d="M163.129 268.32V388.793" stroke="#2F323A" stroke-miterlimit="10" stroke-linecap="round" stroke-linejoin="round"/>
<path d="M184.294 268.32V388.793" stroke="#2F323A" stroke-miterlimit="10" stroke-linecap="round" stroke-linejoin="round"/>
<path d="M205.662 268.32V388.793" stroke="#2F323A" stroke-miterlimit="10" stroke-linecap="round" stroke-linejoin="round"/>
<path d="M226.826 268.32V388.793" stroke="#2F323A" stroke-miterlimit="10" stroke-linecap="round" stroke-linejoin="round"/>
<path d="M247.989 268.32V388.793" stroke="#2F323A" stroke-miterlimit="10" stroke-linecap="round" stroke-linejoin="round"/>
<path d="M269.153 355.419V268.524V268.32" stroke="#2F323A" stroke-miterlimit="10" stroke-linecap="round" stroke-linejoin="round"/>
<path d="M287.061 291.519H103.503" stroke="#2F323A" stroke-miterlimit="10" stroke-linecap="round" stroke-linejoin="round"/>
<path d="M281.363 311.869H103.503" stroke="#2F323A" stroke-miterlimit="10" stroke-linecap="round" stroke-linejoin="round"/>
<path d="M274.851 332.83H103.503" stroke="#2F323A" stroke-miterlimit="10" stroke-linecap="round" stroke-linejoin="round"/>
<path d="M269.153 353.791H103.503" stroke="#2F323A" stroke-miterlimit="10" stroke-linecap="round" stroke-linejoin="round"/>
<path d="M264.473 372.106H103.503" stroke="#2F323A" stroke-miterlimit="10" stroke-linecap="round" stroke-linejoin="round"/>
<path d="M629.148 483.014H47.9485" stroke="#2F323A" stroke-miterlimit="10" stroke-linecap="round" stroke-linejoin="round"/>
</svg>
