<svg width="35" height="35" viewBox="0 0 35 35" fill="none" xmlns="http://www.w3.org/2000/svg">
<path fill-rule="evenodd" clip-rule="evenodd" d="M26.3885 3.81429H1.66729C1.55809 3.81429 1.45029 3.82549 1.34459 3.84579C0.955387 3.92279 0.621487 4.13279 0.384888 4.42189C0.148285 4.71099 0.00828552 5.07919 0.00828552 5.47189C0.00828552 5.57409 0.0180855 5.67909 0.0390854 5.78619H0.0383873L2.37078 18.8496C2.55279 19.8681 3.08339 20.7445 3.82609 21.3668C4.57019 21.9898 5.52569 22.3573 6.55959 22.3573C19.5369 22.3573 7.98549 22.3552 11.4701 22.3559C15.8451 22.3566 20.2201 22.3573 24.5951 22.3524C25.0053 22.3517 25.2615 22.5351 25.3679 22.7696C25.4092 22.8613 25.4302 22.9593 25.4302 23.0552C25.4302 23.1518 25.4099 23.2498 25.3693 23.3408C25.2657 23.5711 25.0102 23.7503 24.5951 23.7503H7.18959C6.40349 23.7503 5.89738 24.1885 5.67339 24.7492C5.58869 24.9606 5.54669 25.1867 5.54669 25.4093C5.54669 25.6305 5.58869 25.8559 5.67339 26.0673V26.0694C5.89738 26.6301 6.40349 27.0683 7.18959 27.0683V27.0662L24.6154 27.0655C26.1659 27.1089 27.3153 26.4005 27.9992 25.3869C28.3555 24.8591 28.5823 24.2487 28.6726 23.6187C28.7622 22.9908 28.7139 22.3405 28.5193 21.7329C28.1903 20.7053 27.4483 19.8044 26.252 19.3361C26.2821 19.236 26.3094 19.1303 26.3339 19.019L29.3726 5.29199C29.4216 5.06939 29.5378 4.88529 29.6967 4.75859C29.8556 4.63189 30.0628 4.55909 30.2945 4.55909H33.3493C34.1354 4.55909 34.6415 4.12089 34.8655 3.56019C34.9502 3.34879 34.9922 3.12269 34.9922 2.90009C34.9922 2.67889 34.9502 2.45349 34.8655 2.24209V2.23999C34.6415 1.67929 34.1354 1.24109 33.3493 1.24109H30.2945C29.3761 1.24109 28.5123 1.53229 27.8046 2.04259C27.1907 2.48569 26.6965 3.09189 26.3885 3.81429ZM10.2283 7.13229V12.8317H4.66609L3.64829 7.13229H10.2283ZM4.84109 13.8117H10.2283V19.04H6.55959C6.32369 19.04 6.11299 18.9616 5.95199 18.8272C5.79169 18.6928 5.67759 18.4989 5.63629 18.2672L4.84109 13.8117ZM11.2083 19.04V13.8117H17.4369V19.04H11.2083ZM18.4169 19.04V13.8117H24.1016L23.1069 18.3064C23.0579 18.529 22.9417 18.7131 22.7828 18.8398C22.6239 18.9665 22.4167 19.0393 22.185 19.0393H18.4169V19.04ZM24.3137 12.8534C24.2682 12.8394 24.2199 12.8317 24.1702 12.8317H18.4162V7.13229H25.58L24.3137 12.8534ZM17.4369 7.13229V12.8317H11.209V7.13229H17.4369ZM9.78378 27.356C8.89968 27.356 8.09959 27.7144 7.51999 28.294C6.94039 28.8736 6.58199 29.6737 6.58199 30.5578C6.58199 31.4419 6.94039 32.242 7.51999 32.8216C8.09959 33.4012 8.89968 33.7596 9.78378 33.7596C10.6679 33.7596 11.468 33.4012 12.0476 32.8216C12.6272 32.242 12.9856 31.4419 12.9856 30.5578C12.9856 29.6737 12.6272 28.8736 12.0476 28.294C11.468 27.7144 10.6679 27.356 9.78378 27.356ZM8.21299 28.9863C8.61479 28.5845 9.17059 28.3353 9.78378 28.3353C10.397 28.3353 10.9528 28.5838 11.3546 28.9863C11.7564 29.3881 12.0056 29.9439 12.0056 30.5571C12.0056 31.1703 11.7571 31.7261 11.3546 32.1279C10.9528 32.5297 10.397 32.7789 9.78378 32.7789C9.17059 32.7789 8.61479 32.5304 8.21299 32.1279C7.81119 31.7261 7.56199 31.1703 7.56199 30.5571C7.56199 29.9439 7.81049 29.3888 8.21299 28.9863ZM9.78378 30.1525C9.89579 30.1525 9.99729 30.198 10.0701 30.2708C10.1436 30.3443 10.1884 30.4451 10.1884 30.5571C10.1884 30.6691 10.1429 30.7706 10.0701 30.8434C9.99659 30.9169 9.89579 30.9617 9.78378 30.9617C9.67179 30.9617 9.57029 30.9162 9.49749 30.8434C9.42399 30.7699 9.37919 30.6691 9.37919 30.5571C9.37919 30.4451 9.42469 30.3436 9.49749 30.2708C9.57029 30.198 9.67179 30.1525 9.78378 30.1525ZM10.7631 29.5785C11.0137 29.8291 11.1684 30.1756 11.1684 30.5578C11.1684 30.94 11.0137 31.2865 10.7631 31.5371C10.5125 31.7877 10.166 31.9424 9.78378 31.9424C9.40159 31.9424 9.05509 31.7877 8.80449 31.5371C8.55389 31.2865 8.39919 30.94 8.39919 30.5578C8.39919 30.1756 8.55389 29.8291 8.80449 29.5785C9.05509 29.3279 9.40159 29.1732 9.78378 29.1732C10.166 29.1725 10.5125 29.3272 10.7631 29.5785ZM23.0614 27.356C22.1773 27.356 21.3772 27.7144 20.7976 28.294C20.218 28.8736 19.8596 29.6737 19.8596 30.5578C19.8596 31.4419 20.218 32.242 20.7976 32.8216C21.3772 33.4012 22.1773 33.7596 23.0614 33.7596C23.9455 33.7596 24.7456 33.4012 25.3252 32.8216C25.9048 32.242 26.2632 31.4419 26.2632 30.5578C26.2632 29.6737 25.9048 28.8736 25.3252 28.294C24.7456 27.7144 23.9455 27.356 23.0614 27.356ZM21.4906 28.9863C21.8924 28.5845 22.4482 28.3353 23.0614 28.3353C23.6746 28.3353 24.2304 28.5838 24.6322 28.9863C25.034 29.3881 25.2832 29.9439 25.2832 30.5571C25.2832 31.1703 25.0347 31.7261 24.6322 32.1279C24.2304 32.5297 23.6746 32.7789 23.0614 32.7789C22.4482 32.7789 21.8924 32.5304 21.4906 32.1279C21.0888 31.7261 20.8396 31.1703 20.8396 30.5571C20.8396 29.9439 21.0888 29.3888 21.4906 28.9863ZM23.0614 30.1525C23.1734 30.1525 23.2749 30.198 23.3477 30.2708C23.4212 30.3443 23.466 30.4451 23.466 30.5571C23.466 30.6691 23.4205 30.7706 23.3477 30.8434C23.2742 30.9169 23.1734 30.9617 23.0614 30.9617C22.9494 30.9617 22.8479 30.9162 22.7751 30.8434C22.7016 30.7699 22.6568 30.6691 22.6568 30.5571C22.6568 30.4451 22.7023 30.3436 22.7751 30.2708C22.8479 30.198 22.9494 30.1525 23.0614 30.1525ZM24.0407 29.5785C24.2913 29.8291 24.446 30.1756 24.446 30.5578C24.446 30.94 24.2913 31.2865 24.0407 31.5371C23.7901 31.7877 23.4436 31.9424 23.0614 31.9424C22.6792 31.9424 22.3327 31.7877 22.0821 31.5371C21.8315 31.2865 21.6768 30.94 21.6768 30.5578C21.6768 30.1756 21.8315 29.8291 22.0821 29.5785C22.3327 29.3279 22.6792 29.1732 23.0614 29.1732C23.4436 29.1725 23.7901 29.3272 24.0407 29.5785ZM1.66659 4.79429H27.0801L27.1914 4.45759C27.414 3.78419 27.834 3.22489 28.3751 2.83499C28.9169 2.44369 29.5826 2.22109 30.2945 2.22109H33.3493C33.6706 2.22109 33.8729 2.38909 33.9583 2.60399H33.959C33.9947 2.69359 34.0122 2.79509 34.0122 2.90079C34.0122 3.00509 33.994 3.10659 33.9583 3.19689C33.8722 3.41179 33.6699 3.57979 33.3493 3.57979H30.2945C29.8395 3.57979 29.4209 3.73169 29.0884 3.99769C28.758 4.26159 28.5179 4.63609 28.4192 5.08269L25.3812 18.8104C25.3581 18.9147 25.328 19.0239 25.2909 19.1366C25.2566 19.2409 25.2167 19.3445 25.1705 19.4481L24.9381 19.9724L25.496 20.118C26.6293 20.4141 27.3111 21.1638 27.5897 22.0339C27.7381 22.4973 27.7738 22.9964 27.7045 23.4836C27.6352 23.9687 27.4609 24.4377 27.1886 24.8423C26.679 25.5976 25.8152 26.1247 24.6427 26.0925L7.19029 26.0932V26.0911C6.86899 26.0911 6.66669 25.9231 6.58129 25.7082H6.58059C6.54489 25.6186 6.52739 25.5171 6.52739 25.4114C6.52739 25.3071 6.54559 25.2056 6.58129 25.1153C6.66739 24.9004 6.86969 24.7324 7.19029 24.7324H24.5951C25.4547 24.7324 26.0105 24.2998 26.2611 23.7447C26.3584 23.5291 26.4067 23.2932 26.4067 23.0573C26.406 22.8207 26.357 22.5848 26.2597 22.3692C26.0077 21.812 25.4498 21.3766 24.5951 21.378C20.2201 21.3829 15.8451 21.3822 11.4701 21.3815C4.71159 21.3801 16.2637 21.3787 6.55959 21.3787C5.76159 21.3787 5.02519 21.0959 4.45399 20.6178C3.88279 20.1397 3.47539 19.4649 3.33539 18.6809V18.6788L1.00299 5.61539L1.00089 5.60769C0.992485 5.56359 0.988285 5.51879 0.988285 5.47329C0.988285 5.31299 1.04568 5.16179 1.14299 5.04349C1.24028 4.92519 1.37609 4.83909 1.53289 4.80829C1.57349 4.79919 1.61899 4.79429 1.66659 4.79429ZM26.1883 6.15229H26.7966L24.0596 18.5171C23.9609 18.9637 23.7215 19.3375 23.3904 19.6021C23.0579 19.8681 22.6386 20.02 22.1843 20.02H17.9262H10.7176H6.55889C6.08779 20.02 5.65799 19.8576 5.32339 19.5776C4.98878 19.2976 4.75359 18.9028 4.67029 18.4394L2.47789 6.15229H10.7183H17.9269H26.1883Z" fill="#B2BAC1"/>
</svg>
